# xmcd
#
# Track frame offsets:
#	150
#	19737
#	36091
#	51716
#	69314
#	85250
#	100045
#	118008
#	134117
#	148365
#	165016
#	179260
#	199248
#
# Disc length: 2837 seconds
#
# Revision: 0
# Processed by: cddbd v1.5.2PL0 Copyright (c) Steve Scherf et al.
# Submitted via: EasyCDDAExtractor 16.0.6.1
#
DISCID=bb0b130d
DTITLE=Kari Tapio - Olen suomalainen Cd 9
DYEAR=1900
DGENRE=
TTITLE0=Yön tuuli vain
TTITLE1=Yksin et iltaa viettää saa
TTITLE2=Jos sä saisit sydämein
TTITLE3=Luoksesi tukholmaan
TTITLE4=Elämän meri
TTITLE5=Milloin saapuu hän
TTITLE6=Kohtalo peliin kun puuttui
TTITLE7=Villihanhet
TTITLE8=Lapset suomenmaan
TTITLE9=Susi jo syntyessään
TTITLE10=Lottovoitto on syntyä suomeen
TTITLE11=Kuin lapsena ennen
TTITLE12=Lapin jenkka
EXTD=
EXTT0=
EXTT1=
EXTT2=
EXTT3=
EXTT4=
EXTT5=
EXTT6=
EXTT7=
EXTT8=
EXTT9=
EXTT10=
EXTT11=
EXTT12=
PLAYORDER=
